<svg width="28" height="28" viewBox="0 0 28 28" fill="none" xmlns="http://www.w3.org/2000/svg">
<path d="M14 10C12.9391 10 11.9217 10.4214 11.1716 11.1716C10.4214 11.9217 10 12.9391 10 14C10 15.0609 10.4214 16.0783 11.1716 16.8284C11.9217 17.5786 12.9391 18 14 18C15.0609 18 16.0783 17.5786 16.8284 16.8284C17.5786 16.0783 18 15.0609 18 14C18 12.9391 17.5786 11.9217 16.8284 11.1716C16.0783 10.4214 15.0609 10 14 10ZM14 7.33333C15.7681 7.33333 17.4638 8.03571 18.714 9.28595C19.9643 10.5362 20.6667 12.2319 20.6667 14C20.6667 15.7681 19.9643 17.4638 18.714 18.714C17.4638 19.9643 15.7681 20.6667 14 20.6667C12.2319 20.6667 10.5362 19.9643 9.28595 18.714C8.03571 17.4638 7.33333 15.7681 7.33333 14C7.33333 12.2319 8.03571 10.5362 9.28595 9.28595C10.5362 8.03571 12.2319 7.33333 14 7.33333V7.33333ZM22.6667 7C22.6667 7.44203 22.4911 7.86595 22.1785 8.17851C21.866 8.49107 21.442 8.66667 21 8.66667C20.558 8.66667 20.134 8.49107 19.8215 8.17851C19.5089 7.86595 19.3333 7.44203 19.3333 7C19.3333 6.55797 19.5089 6.13405 19.8215 5.82149C20.134 5.50893 20.558 5.33333 21 5.33333C21.442 5.33333 21.866 5.50893 22.1785 5.82149C22.4911 6.13405 22.6667 6.55797 22.6667 7V7ZM14 3.33333C10.7013 3.33333 10.1627 3.34267 8.628 3.41067C7.58267 3.46 6.88133 3.6 6.23067 3.85333C5.652 4.07733 5.23467 4.34533 4.79067 4.79067C4.37334 5.19386 4.05247 5.68611 3.852 6.23067C3.59867 6.884 3.45867 7.584 3.41067 8.628C3.34133 10.1 3.33333 10.6147 3.33333 14C3.33333 17.2987 3.34267 17.8373 3.41067 19.372C3.46 20.416 3.6 21.1187 3.852 21.768C4.07867 22.348 4.34533 22.7653 4.788 23.208C5.23733 23.656 5.65467 23.924 6.228 24.1453C6.88667 24.4 7.588 24.5413 8.628 24.5893C10.1 24.6587 10.6147 24.6667 14 24.6667C17.2987 24.6667 17.8373 24.6573 19.372 24.5893C20.4147 24.54 21.1173 24.4 21.768 24.148C22.3453 23.9227 22.7653 23.6547 23.208 23.212C23.6573 22.7627 23.9253 22.3453 24.1467 21.772C24.4 21.1147 24.5413 20.412 24.5893 19.372C24.6587 17.9 24.6667 17.3853 24.6667 14C24.6667 10.7013 24.6573 10.1627 24.5893 8.628C24.54 7.58533 24.4 6.88133 24.1467 6.23067C23.9457 5.68667 23.6254 5.19461 23.2093 4.79067C22.8063 4.37313 22.314 4.05222 21.7693 3.852C21.116 3.59867 20.4147 3.45867 19.372 3.41067C17.9 3.34133 17.3853 3.33333 14 3.33333ZM14 0.666666C17.6227 0.666666 18.0747 0.679999 19.496 0.746666C20.916 0.813333 21.8827 1.036 22.7333 1.36667C23.6133 1.70533 24.3547 2.164 25.096 2.904C25.774 3.57053 26.2986 4.37678 26.6333 5.26667C26.9627 6.116 27.1867 7.084 27.2533 8.504C27.316 9.92533 27.3333 10.3773 27.3333 14C27.3333 17.6227 27.32 18.0747 27.2533 19.496C27.1867 20.916 26.9627 21.8827 26.6333 22.7333C26.2996 23.6237 25.7748 24.4302 25.096 25.096C24.4293 25.7738 23.6231 26.2983 22.7333 26.6333C21.884 26.9627 20.916 27.1867 19.496 27.2533C18.0747 27.316 17.6227 27.3333 14 27.3333C10.3773 27.3333 9.92533 27.32 8.504 27.2533C7.084 27.1867 6.11733 26.9627 5.26667 26.6333C4.37643 26.2993 3.57004 25.7746 2.904 25.096C2.22587 24.4296 1.70124 23.6233 1.36667 22.7333C1.036 21.884 0.813333 20.916 0.746666 19.496C0.683999 18.0747 0.666666 17.6227 0.666666 14C0.666666 10.3773 0.679999 9.92533 0.746666 8.504C0.813333 7.08267 1.036 6.11733 1.36667 5.26667C1.70031 4.37624 2.22507 3.56976 2.904 2.904C3.57023 2.22564 4.37657 1.70097 5.26667 1.36667C6.11733 1.036 7.08267 0.813333 8.504 0.746666C9.92533 0.683999 10.3773 0.666666 14 0.666666Z" fill="white"/>
</svg>
